<?xml version="1.0" encoding="UTF-8"?>
<svg id="Camada_2" data-name="Camada 2" xmlns="http://www.w3.org/2000/svg" viewBox="0 0 335.28 335.28">
  <defs>
    <style>
      .cls-1 {
        fill: #fdecca;
        stroke: #000;
        stroke-miterlimit: 10;
      }

      .cls-2 {
        fill: #006837;
      }

      .cls-3 {
        fill: #003a00;
      }
    </style>
  </defs>
  <g id="diagramação">
    <g>
      <circle class="cls-3" cx="167.64" cy="167.64" r="167.64"/>
      <path class="cls-1" d="M295.96,173.85c0,28.83-10.96,57.96-34.48,76.58-22.65,17.92-52.74,22.77-93.31,22.77s-66.94-2.07-89.25-2.07c18.26-22.77,38.54-35.18,56.8-60.02-20.28-18.63-36.51-36.69-36.51-53.81-56.8-16.56-60.85-68.3-56.8-86.92h125.76c34.73,0,68.52,4.23,91.28,22.77,22.76,18.54,36.51,52.43,36.51,80.72Z"/>
      <path class="cls-2" d="M269.05,178.23c-6.41,71.54-64.91,78.41-122.11,78.41-18.63,0,9.99-18.61,23.87-33.56,11.75-2.14,44.43,8.72,65.12-30.6,16.56-31.04-6.21-57.95-19.21-59.1-38.44-6.41-100.37,0-119.59-4.27-2.14,0-36.31-14.95-27.76-25.63h99.31c54.46-2.14,100.37,6.21,100.37,74.75Z"/>
      <path class="cls-2" d="M221.45,175.23c-2.44,15.87-21.86,15.87-48.82,15.87s-41.5-19.53-46.38-31.73h46.38c26.96,0,48.82,0,48.82,15.87Z"/>
    </g>
  </g>
</svg>